<svg xmlns="http://www.w3.org/2000/svg" xmlns:xlink="http://www.w3.org/1999/xlink" width="1920" height="1080" viewBox="0 0 1440 810">
  <defs>
    <clipPath id="c">
      <path d="M0 131h504.852v548H0Zm0 0"></path>
    </clipPath>
    <clipPath id="e">
      <path d="M222.457 268.371h4.234v2.57h-4.234Zm0 0"></path>
    </clipPath>
    <clipPath id="f">
      <path d="M225.281 270.941c-2.742-1.066-2.844-1.675-2.742-1.98.102-.254.508-.508.762-.559.304-.05.71.102.914.305.203.203.355.66.254.914-.102.305-.61.762-.965.813-.305 0-.863-.407-1.016-.711-.101-.305.102-.965.407-1.168.558-.305 2.59.05 3.199.507.355.305.66.915.558 1.22-.101.355-1.37.66-1.37.66"></path>
    </clipPath>
    <clipPath id="g">
      <path d="M227.137 272h11.742v6.594h-11.742Zm0 0"></path>
    </clipPath>
    <clipPath id="h">
      <path d="M228.477 272.004c10.304 5.18 10.406 5.84 10.203 6.144-.153.254-.86.508-1.164.356-.305-.102-.711-1.016-.61-1.32.102-.305 1.016-.66 1.371-.559.301.102.657.762.555 1.117-.05.305-.555.762-1.215.813-1.676.152-8.988-3.453-10.105-4.774-.356-.457-.457-1.015-.305-1.32s1.27-.457 1.27-.457"></path>
    </clipPath>
    <clipPath id="i">
      <path d="M222.172 268.52h1.898v1.648h-1.898Zm0 0"></path>
    </clipPath>
    <clipPath id="j">
      <path d="M224.063 269.113c-.864 1.371-1.625 1.117-1.829.813-.152-.305 0-1.117.254-1.32s1.32.101 1.32.101"></path>
    </clipPath>
    <clipPath id="k">
      <path d="M141.086 423.914h21.07v23.512h-21.07Zm0 0"></path>
    </clipPath>
    <clipPath id="l">
      <path d="M146.547 430.34c5.734 6.293 6.394 7.969 6.242 8.375a.345.345 0 0 1-.406.203c-.66-.152-3.403-5.18-3.098-5.434.254-.254 2.54 1.422 3.555 2.692 1.32 1.625 3.25 5.84 3.2 6.8 0 .254-.204.508-.356.508-.508-.05-3.098-5.836-2.946-6.597.051-.203.153-.356.356-.305.61 0 3.351 2.691 4.316 4.164.813 1.168 1.672 3.145 1.418 3.602-.101.203-.605.254-.656.152-.102-.102.152-.61.152-.61.051.051-.101.305 0 .508.25.508 3.145 1.372 3.551 2.032.254.304.254.863.152.965-.203.101-.964-.356-1.574-.915-1.32-1.168-3.398-5.023-5.328-7.003-1.727-1.778-4.418-2.946-5.484-4.368-.711-.964-.508-1.93-1.118-2.894-.761-1.164-3.246-2.942-3.246-3.45 0-.202.203-.355.356-.355.558 0 2.383 2.184 3.043 3.246.558.864 1.219 2.285 1.015 2.54-.101.1-.507 0-.863-.204-.863-.406-2.84-2.387-3.957-3.652-1.016-1.067-2.742-2.996-2.539-3.3.102-.204 1.066.1 1.625.405.66.356 2.031 1.473 2.031 1.88 0 .152-.203.355-.355.355-.305 0-.965-.965-1.524-1.625-.863-.914-2.945-2.996-2.945-3.657 0-.203.102-.355.305-.406.406-.05 2.234 1.27 2.234 1.625 0 .153-.254.356-.406.356-.152-.051-.508-.457-.508-.61s.203-.355.356-.355c.253 0 .609.812 1.117 1.574 1.168 1.828 5.633 8.578 5.379 9.39-.051.204-.457.204-.457.204l.457-.203s-.254.304-.457.254c-.965-.254-6.496-9.797-6.395-10.864 0-.203.254-.406.356-.355.101 0 .355.914.203.965-.203.152-2.133-1.473-2.133-1.524.05-.05.71.203 1.168.559.914.762 3.808 4.265 3.656 4.469-.203.203-3.351-2.235-3.402-2.082-.153.203 7.105 5.835 7.054 6.597 0 .153-.254.305-.355.305-.305-.102-.508-1.524-1.066-2.336-.66-1.063-3.043-2.738-3.043-3.297.05-.152.203-.305.355-.305.406 0 1.32 1.118 1.875 1.727.559.61 1.117 1.215 1.523 1.976.407.711.254 1.625.864 2.489 1.015 1.422 3.86 2.742 5.687 4.57 2.082 2.133 6.242 7.106 5.938 7.461-.153.203-3.45-1.727-3.551-2.234-.05-.203.305-.457.305-.457s-.203.304-.153.355c.051.152.758.102.758.102 0-.051-.656 0-.91-.254-.508-.457-.305-2.028-.914-3.043-.813-1.422-4.215-3.453-4.266-4.113 0-.204.203-.407.356-.356.457.05 2.082 3.656 2.59 4.824.254.61.507 1.016.457 1.418-.051.254-.254.66-.457.66-.61-.05-1.93-5.175-3.2-6.953-.964-1.37-3.3-2.742-3.199-3.047 0-.101.305-.203.457-.101.61.254 2.031 3.504 2.54 4.418.253.406.558.762.507.914-.05.152-.305.305-.406.203-.406-.102-.508-2.031-1.219-3.098-1.016-1.625-5.023-4.468-4.973-5.125 0-.203.356-.355.356-.355"></path>
    </clipPath>
    <clipPath id="o">
      <path d="M.121.914h21.035v23.512H.121Zm0 0"></path>
    </clipPath>
    <clipPath id="p">
      <path d="M5.547 7.34c5.734 6.293 6.394 7.969 6.242 8.375a.345.345 0 0 1-.406.203c-.66-.152-3.403-5.18-3.098-5.434.254-.254 2.54 1.422 3.555 2.692 1.32 1.625 3.25 5.84 3.2 6.8 0 .254-.204.508-.356.508-.508-.05-3.098-5.836-2.946-6.597.051-.203.153-.356.356-.305.61 0 3.351 2.691 4.316 4.164.813 1.168 1.672 3.145 1.418 3.602-.101.203-.605.254-.656.152-.102-.102.152-.61.152-.61.051.051-.101.305 0 .508.25.508 3.145 1.372 3.551 2.032.254.304.254.863.152.965-.203.101-.965-.356-1.574-.915-1.32-1.168-3.398-5.023-5.328-7.003-1.727-1.778-4.418-2.946-5.484-4.368-.711-.964-.508-1.93-1.118-2.894-.761-1.164-3.246-2.942-3.246-3.45 0-.202.203-.355.356-.355.558 0 2.383 2.184 3.043 3.246.558.864 1.219 2.285 1.015 2.54-.101.1-.507 0-.863-.204-.863-.406-2.84-2.387-3.957-3.652-1.016-1.067-2.742-2.996-2.539-3.3.102-.204 1.066.1 1.625.405.66.356 2.031 1.473 2.031 1.88 0 .152-.203.355-.355.355-.305 0-.965-.965-1.524-1.625C2.246 4.14.164 2.059.164 1.398c0-.203.102-.355.305-.406.406-.05 2.234 1.27 2.234 1.625 0 .153-.254.356-.406.356-.152-.051-.508-.457-.508-.61s.203-.355.356-.355c.253 0 .609.812 1.117 1.574C4.43 5.41 8.895 12.16 8.64 12.972c-.051.204-.457.204-.457.204l.457-.203s-.254.304-.457.254c-.965-.254-6.496-9.797-6.395-10.864 0-.203.254-.406.356-.355.101 0 .355.914.203.965C2.145 3.125.215 1.5.215 1.449c.05-.05.71.203 1.168.559.914.762 3.808 4.265 3.656 4.469-.203.203-3.351-2.235-3.402-2.082-.153.203 7.105 5.835 7.054 6.597 0 .153-.254.305-.355.305-.305-.102-.508-1.524-1.066-2.336-.66-1.063-3.043-2.738-3.043-3.297.05-.152.203-.305.355-.305.406 0 1.32 1.118 1.875 1.727.559.61 1.117 1.215 1.523 1.976.407.711.254 1.626.864 2.489 1.015 1.422 3.86 2.742 5.687 4.57 2.082 2.133 6.242 7.106 5.938 7.461-.153.203-3.45-1.727-3.551-2.234-.05-.203.305-.457.305-.457s-.203.304-.153.355c.051.152.758.102.758.102 0-.051-.656 0-.91-.254-.508-.457-.305-2.028-.914-3.043-.813-1.422-4.215-3.453-4.266-4.113 0-.204.203-.407.356-.356.457.05 2.082 3.656 2.59 4.824.254.61.507 1.016.457 1.418-.051.254-.254.66-.457.66-.61-.05-1.93-5.175-3.2-6.953-.964-1.37-3.3-2.742-3.199-3.047 0-.101.305-.203.457-.101.61.254 2.031 3.504 2.54 4.418.253.406.558.761.507.914-.05.152-.305.305-.406.203-.406-.102-.508-2.031-1.219-3.098-1.016-1.625-5.023-4.468-4.973-5.125 0-.203.356-.355.356-.355"></path>
    </clipPath>
    <clipPath id="n">
      <path d="M0 0h22v25H0z"></path>
    </clipPath>
    <clipPath id="q">
      <path d="M259.434 257.848h.175v.125h-.175Zm0 0"></path>
    </clipPath>
    <clipPath id="r">
      <path d="M259.605 257.922c-.324.133-.066-.067-.066-.067"></path>
    </clipPath>
    <clipPath id="s">
      <path d="M258.758 257.555h.812v.683h-.812Zm0 0"></path>
    </clipPath>
    <clipPath id="t">
      <path d="M259.57 257.563c-.16.937-.804.613-.804.613"></path>
    </clipPath>
    <clipPath id="u">
      <path d="M258.79 257.555h1.491v1.308h-1.492Zm0 0"></path>
    </clipPath>
    <clipPath id="v">
      <path d="M258.797 258.629c1.387-1.067 1.453-.809 1.453-.809l-.164-.257s.195.164.195.257c-.031.227-1.031 1.067-1.289 1.032-.097 0-.195-.223-.195-.223"></path>
    </clipPath>
    <clipPath id="w">
      <path d="M259.469 257.75h.648v.621h-.648Zm0 0"></path>
    </clipPath>
    <clipPath id="x">
      <path d="M259.7 257.758c.355 0 .452.387.386.515-.094.098-.61.098-.61.098"></path>
    </clipPath>
    <clipPath id="y">
      <path d="M258.691 257.523h.16v.532h-.16Zm0 0"></path>
    </clipPath>
    <clipPath id="z">
      <path d="M258.703 257.531c.32 1.16 0 0 0 0"></path>
    </clipPath>
    <clipPath id="A">
      <path d="M259.637 257.86h.18v.156h-.18Zm0 0"></path>
    </clipPath>
    <clipPath id="B">
      <path d="M259.637 257.918c.32-.16.097.098.097.098"></path>
    </clipPath>
    <clipPath id="C">
      <path d="M259.281 257.805h.168v.18h-.168Zm0 0"></path>
    </clipPath>
    <clipPath id="D">
      <path d="M259.281 257.855c.29-.164.098.13.098.13"></path>
    </clipPath>
    <clipPath id="E">
      <path d="M259.305 257.719h.855v.824h-.855Zm0 0"></path>
    </clipPath>
    <clipPath id="F">
      <path d="M259.313 258.336c.68-.61.808-.387.84-.387 0 0-.16-.222-.227-.222-.098 0-.227.773-.356.804-.093.031-.257-.195-.257-.195"></path>
    </clipPath>
    <clipPath id="G">
      <path d="M258.879 257.773h1.535v1.336h-1.535Zm0 0"></path>
    </clipPath>
    <clipPath id="H">
      <path d="M258.895 258.918c1.355-1.129 1.48-.934 1.48-.934s-.254-.195-.223-.195c0 0 .223.066.258.129.031.195-1 1.191-1.258 1.191-.129 0-.257-.191-.257-.191"></path>
    </clipPath>
    <clipPath id="I">
      <path d="M258.563 257.555h1.75v1.34h-1.75Zm0 0"></path>
    </clipPath>
    <clipPath id="J">
      <path d="M259.828 258.113c-1.16-.582.356-.293.387-.097 0 .16-1.223.707-1.383.613-.098-.035-.098-.293-.035-.387.066-.129.387-.258.484-.226.067.097-.097.804-.129.804 0 0-.062-.418.032-.547.128-.16.808-.324.84-.257.03.062-1.16.902-1.258.836-.032-.032.097-.352.226-.48.16-.196.871-.259.871-.325 0-.031-1.031.226-1.16.098-.066-.098-.035-.325.063-.387.16-.13 1.257.191 1.226.226 0 0-1.16.032-1.324-.097-.063-.067-.094-.227-.063-.29.13-.128 1.707.352 1.676.419 0 .03-1.258.097-1.515-.067-.13-.062-.227-.191-.192-.258.031-.062.223-.093.387-.093.32 0 1.289.222 1.289.32s-1 .355-1.16.227c-.067-.032-.035-.29-.035-.29v.29s-.094-.227-.032-.29c.13-.128 1.16-.066 1.227.063.031.066-.035.195-.129.227-.226.128-1.289-.032-1.453-.227-.063-.063-.031-.258.035-.32.16-.098 1.61.386 1.61.449-.032.031-1.45 0-1.645-.16-.063-.098-.094-.258-.031-.29.129-.128 1.355.223 1.355.29 0 .062-1.129.097-1.129.129 0 .03 1.29-.032 1.32.097.032.13-1.32.836-1.386.774-.031-.067.387-.68.613-.809.16-.129.582-.129.613-.062.032.097-.675.87-.87.804-.13-.03-.356-.675-.258-.773.066-.098.546-.063.582.031.03.098-.551.582-.711.55-.063 0-.13-.163-.13-.226.032-.129.29-.257.516-.324.258-.062 1.032.035 1.063-.031 0-.063-1.254-.387-1.254-.418 0 0 .867.031.965.16.031.098-.098.324-.098.324"></path>
    </clipPath>
    <clipPath id="K">
      <path d="M249.355 260.64h.168v.145h-.168Zm0 0"></path>
    </clipPath>
    <clipPath id="L">
      <path d="M249.36 260.723c.288-.196.093.062.093.062"></path>
    </clipPath>
    <clipPath id="M">
      <path d="M259.367 258.203h.18v.121h-.18Zm0 0"></path>
    </clipPath>
    <clipPath id="N">
      <path d="M259.54 258.277c-.321.13-.063-.066-.063-.066"></path>
    </clipPath>
    <clipPath id="O">
      <path d="M259.023 258.031h.145v.156h-.145Zm0 0"></path>
    </clipPath>
    <clipPath id="P">
      <path d="M259.023 258.113c.258-.195.067.063.067.063"></path>
    </clipPath>
    <clipPath id="Q">
      <path d="M258.535 257.719h.86v.597h-.86Zm0 0"></path>
    </clipPath>
    <clipPath id="R">
      <path d="M259.379 257.727c.098.351-.258.609-.418.578-.164-.032-.422-.578-.422-.578"></path>
    </clipPath>
    <clipPath id="S">
      <path d="M255.727 257.504H260v1.266h-4.273Zm0 0"></path>
    </clipPath>
    <clipPath id="T">
      <path d="M259.992 258.016c-1.773.675-1.676.32-1.87.16-.356-.32-2.384-.578-2.384-.645 0-.062 2.512.031 2.801.418.129.196-.094.809-.16.809-.031 0-.129-.195-.063-.293.094-.223 1.223-.774 1.48-.707.13.031.196.258.196.258"></path>
    </clipPath>
    <clipPath id="U">
      <path d="M258.2 257.648h1.609v.797h-1.61Zm0 0"></path>
    </clipPath>
    <clipPath id="V">
      <path d="M259.152 258.047c.676.098.032.453-.03.387-.032-.032.226-.356.16-.418-.098-.098-.677.226-.805.16-.13-.063-.227-.418-.16-.485.093-.062.902.196.933.325.031.097-.16.289-.16.289.031 0 .258-.16.223-.192-.032-.097-.997 0-1.094-.129-.031-.066 0-.226.097-.293.192-.093 1.192 0 1.254.196.067.129-.386.578-.449.547-.031 0-.066-.192 0-.258.098-.098.676-.13.676-.098 0 .035-.547.356-.645.293-.062-.035 0-.324 0-.324"></path>
    </clipPath>
    <clipPath id="W">
      <path d="M259.145 258.043h.144v.121h-.144Zm0 0"></path>
    </clipPath>
    <clipPath id="X">
      <path d="M259.281 258.113c-.289.133-.031-.062-.031-.062"></path>
    </clipPath>
    <clipPath id="Y">
      <path d="M259.05 258.008h.333v.219h-.332Zm0 0"></path>
    </clipPath>
    <clipPath id="Z">
      <path d="M259.379 258.016c-.098.418-.324.062-.324.062"></path>
    </clipPath>
    <clipPath id="aa">
      <path d="M255.68 257.383h3.902v1.574h-3.902Zm0 0"></path>
    </clipPath>
    <clipPath id="ab">
      <path d="M259.379 258.305c-2.934-.356-1.192-.871-.969-.743.098.036.13.196.098.258-.031.067-.192.035-.356.035-.449.032-2.156.223-2.382 0-.098-.066-.098-.226-.032-.293.16-.19 2.063-.03 2.352.258.129.098.129.325.062.453-.062.192-.449.485-.547.45-.062-.032-.128-.192-.097-.29.129-.16 1.355-.386 1.418-.257.066.097-.48.676-.645.71-.129 0-.32-.163-.32-.226.031-.031.613 0 .613.031.031.067-.422.29-.515.258-.067-.031-.13-.191-.098-.289.098-.16.871-.547.965-.484.066.031.066.195 0 .258-.16.195-1.223.418-1.32.289-.098-.094.386-.516.289-.676-.13-.258-2.028 0-2.157-.192-.066-.097-.031-.226.063-.324.289-.191 2.449-.191 2.61.031.066.067 0 .258-.095.356-.226.195-1.484.355-1.644.227-.067-.067-.067-.196 0-.258.191-.227 1.996-.067 2.48 0 .227.062.418.097.418.191.035.067-.191.227-.191.227"></path>
    </clipPath>
    <clipPath id="ac">
      <path d="M256.254 256.727h3.355V258h-3.355Zm0 0"></path>
    </clipPath>
    <clipPath id="ad">
      <path d="M258.152 257.691c.614-.03.582.164.485.227-.098.066-.645 0-.742-.129-.063-.062-.063-.226 0-.289.164-.129 1.257-.066 1.453.098.093.062.129.289.062.351-.098.098-1.32-.387-1.32-.449 0-.066 1.223-.098 1.387.098.093.062.128.289.062.351-.258.196-3.027-.578-3.254-.867-.066-.098.031-.324.031-.324s-.03.324 0 .324c0 0-.062-.258.032-.324.129-.098.644.066 1.03.129.614.16 1.903.418 2.13.71.097.094.129.29.062.352-.129.13-1.289-.129-1.382-.289-.067-.098 0-.258.093-.32.196-.067 1.324.418 1.29.515 0 .063-1.481.13-1.641-.035-.067-.093-.035-.289.03-.32.13-.098.806.098.837.191 0 .067-.516.356-.61.293-.066-.035-.035-.293-.035-.293"></path>
    </clipPath>
    <clipPath id="ae">
      <path d="M256.414 256.16h.156v.11h-.156Zm0 0"></path>
    </clipPath>
    <clipPath id="af">
      <path d="M256.422 256.164c.312.066 0 .102 0 .102"></path>
    </clipPath>
    <clipPath id="ag">
      <path d="M256.703 256.168h.192v.203h-.192Zm0 0"></path>
    </clipPath>
    <clipPath id="ah">
      <path d="M256.89 256.27c-.257.25-.16-.094-.16-.094"></path>
    </clipPath>
    <clipPath id="ai">
      <path d="M258.094 256.648h.168v.168h-.168Zm0 0"></path>
    </clipPath>
    <clipPath id="aj">
      <path d="M258.094 256.809c.101-.344.168 0 .168 0"></path>
    </clipPath>
    <clipPath id="ak">
      <path d="M256.395 256.168h1.406v.703h-1.406Zm0 0"></path>
    </clipPath>
    <clipPath id="al">
      <path d="M257.734 256.863c-1.398-.492-1.379-.629-1.312-.656.156-.137 1.246.191 1.355.383.047.082-.043.273-.043.273"></path>
    </clipPath>
    <clipPath id="am">
      <path d="M257.938 256.426h.144v.11h-.144Zm0 0"></path>
    </clipPath>
    <clipPath id="an">
      <path d="M258.078 256.5c-.289.098-.031-.066-.031-.066"></path>
    </clipPath>
    <clipPath id="ao">
      <path d="M257.715 256.336h.148v.125h-.148Zm0 0"></path>
    </clipPath>
    <clipPath id="ap">
      <path d="M257.855 256.41c-.285.133-.03-.066-.03-.066"></path>
    </clipPath>
    <clipPath id="aq">
      <path d="M257.629 256.723h2.848v1.015h-2.848Zm0 0"></path>
    </clipPath>
    <clipPath id="ar">
      <path d="M259.934 257.676c-2.399-.758-2.356-.875-2.266-.922.223-.145 1.379.305 1.89.45.356.093.82.14.91.28.024.07-.066.239-.066.239l.043-.239s.024.192-.02.239c-.245.14-2.757-.735-2.734-.758 0-.047 1.532.262 1.934.355.2.07.398.094.422.164.02.047-.113.192-.113.192"></path>
    </clipPath>
    <clipPath id="as">
      <path d="M259.39 257.215h.739v.578h-.738Zm0 0"></path>
    </clipPath>
    <clipPath id="at">
      <path d="M260.11 257.219c.074.344-.204.601-.356.57-.129-.027-.356-.57-.356-.57"></path>
    </clipPath>
    <clipPath id="au">
      <path d="M259.86 257.305h.28v.289h-.28Zm0 0"></path>
    </clipPath>
    <clipPath id="av">
      <path d="M259.89 257.586c-.124-.402.243-.246.243-.246"></path>
    </clipPath>
    <clipPath id="aw">
      <path d="M259.594 257.313h.457v.203h-.457Zm0 0"></path>
    </clipPath>
    <clipPath id="ax">
      <path d="M260.047 257.324c-.297.422-.445 0-.445 0"></path>
    </clipPath>
    <clipPath id="ay">
      <path d="M259.64 257.293h.02v.18h-.02Zm0 0"></path>
    </clipPath>
    <clipPath id="az">
      <path d="M259.66 257.469c-.035-.375 0 0 0 0"></path>
    </clipPath>
    <clipPath id="aA">
      <path d="M259.559 257.445h.66v.86h-.66Zm0 0"></path>
    </clipPath>
    <clipPath id="aB">
      <path d="M260.21 257.445c0 .996-.651.848-.651.848"></path>
    </clipPath>
    <clipPath id="aC">
      <path d="M141.938 426.398h15.398V443.5h-15.399Zm0 0"></path>
    </clipPath>
    <clipPath id="aD">
      <path d="M144.137 427.527c3.308 3.13 3.308 3.489 3.175 3.532-.449.222-5.363-3.754-5.363-4.336 0-.133.18-.266.356-.266.492.043 2.148 2.277 2.953 3.262.625.715 1.605 1.699 1.52 2.054 0 .137-.18.313-.317.27-.445-.043-2.008-2.324-1.965-2.727.043-.132.223-.222.36-.222.312.09.757.847 1.34 1.562 1.206 1.61 4.515 6.215 5.452 7.688.356.582.805 1.031.715 1.254 0 .132-.222.27-.36.222-.265-.132-.89-2.816-.667-2.949.355-.18 3.441 4.781 3.887 4.606.27-.09-.403-2.149-.176-2.282.133-.09.578.223.848.582.492.668 1.476 3.664 1.386 3.707-.09.047-2.37-3.617-2.234-4.156 0-.133.223-.265.312-.223.223.09.493 1.832.356 2.325-.09.312-.266.625-.492.625-.715-.043-3.797-5.23-3.934-5.184-.09.043.852 1.43.984 1.965.09.36.18.715.09.851-.043.09-.18.18-.36.09-1.026-.359-7.597-9.386-7.464-10.328a.375.375 0 0 1 .36-.312c.402.09 1.964 2.234 1.878 2.636 0 .18-.18.313-.316.27-.668-.043-4.512-4.606-4.512-5.32 0-.133.133-.266.313-.313.535 0 2.636 2.059 3.62 2.817.669.582 1.61 1.117 1.653 1.476.047.133-.09.356-.222.356-.493.046-3.489-2.727-3.489-3.262 0-.133.313-.27.313-.27"></path>
    </clipPath>
    <filter id="a" width="100%" height="100%" x="0%" y="0%">
      <feColorMatrix color-interpolation-filters="sRGB" values="0 0 0 0 1 0 0 0 0 1 0 0 0 0 1 0 0 0 1 0"></feColorMatrix>
    </filter>
    <filter id="b" width="100%" height="100%" x="0%" y="0%">
      <feColorMatrix color-interpolation-filters="sRGB" values="0 0 0 0 1 0 0 0 0 1 0 0 0 0 1 0.2126 0.7152 0.0722 0 0"></feColorMatrix>
    </filter>
    <mask id="d">
      <g filter="url(#a)">
        <g filter="url(#b)" transform="translate(-43.583 130.875)scale(.35089)">
          <image width="1563" height="1563"></image>
        </g>
      </g>
    </mask>
    <mask id="m">
      <g filter="url(#a)">
        <path fill-opacity=".41" d="M-144-81h1728v972H-144z"></path>
      </g>
    </mask>
  </defs>
  <g clip-path="url(#c)" mask="url(#d)">
    <image width="1563" height="1563" transform="translate(-43.583 130.875)scale(.35089)"></image>
  </g>
  <g clip-path="url(#e)">
    <g clip-path="url(#f)">
      <path fill="#e3d7ec" d="M220.457 266.371h8.234v6.649h-8.234Zm0 0"></path>
    </g>
  </g>
  <g clip-path="url(#g)">
    <g clip-path="url(#h)">
      <path fill="#e3d7ec" d="M225.18 269.977h15.738v10.66H225.18Zm0 0"></path>
    </g>
  </g>
  <g clip-path="url(#i)">
    <g clip-path="url(#j)">
      <path fill="#e3d7ec" d="M220.203 266.574h5.945v5.785h-5.945Zm0 0"></path>
    </g>
  </g>
  <g clip-path="url(#k)">
    <g clip-path="url(#l)" mask="url(#m)">
      <g clip-path="url(#n)" transform="translate(141 423)">
        <g clip-path="url(#o)">
          <g clip-path="url(#p)">
            <path fill="#ff828c" d="M-457.8-601.2h2073.6V565.2H-457.8z"></path>
          </g>
        </g>
      </g>
    </g>
  </g>
  <g clip-path="url(#q)">
    <g clip-path="url(#r)">
      <path fill="#e2d5eb" d="M258.023 256.543h2.907v2.86h-2.907Zm0 0"></path>
    </g>
  </g>
  <g clip-path="url(#s)">
    <g clip-path="url(#t)">
      <path fill="#f2ecf5" d="M257.477 256.273h3.414v3.446h-3.414Zm0 0"></path>
    </g>
  </g>
  <g clip-path="url(#u)">
    <g clip-path="url(#v)">
      <path fill="#f2ecf5" d="M257.508 256.273h4.066v3.903h-4.066Zm0 0"></path>
    </g>
  </g>
  <g clip-path="url(#w)">
    <g clip-path="url(#x)">
      <path fill="#f2ecf5" d="M258.188 256.402h3.187v3.254h-3.187Zm0 0"></path>
    </g>
  </g>
  <g clip-path="url(#y)">
    <g clip-path="url(#z)">
      <path fill="#f2ecf5" d="M257.414 256.242h2.899v3.738h-2.899Zm0 0"></path>
    </g>
  </g>
  <g clip-path="url(#A)">
    <g clip-path="url(#B)">
      <path fill="#f2ecf5" d="M258.348 256.438h2.902v2.867h-2.902Zm0 0"></path>
    </g>
  </g>
  <g clip-path="url(#C)">
    <g clip-path="url(#D)">
      <path fill="#f2ecf5" d="M257.992 256.402h2.903v2.871h-2.903Zm0 0"></path>
    </g>
  </g>
  <g clip-path="url(#E)">
    <g clip-path="url(#F)">
      <path fill="#e3d5ea" d="M258.023 256.438h3.418v3.414h-3.418Zm0 0"></path>
    </g>
  </g>
  <g clip-path="url(#G)">
    <g clip-path="url(#H)">
      <path fill="#e3d5ea" d="M257.605 256.5h4.086v3.934h-4.086Zm0 0"></path>
    </g>
  </g>
  <g clip-path="url(#I)">
    <g clip-path="url(#J)">
      <path fill="#e3d5ea" d="M257.285 256.309h4.324v3.898h-4.324Zm0 0"></path>
    </g>
  </g>
  <g clip-path="url(#K)">
    <g clip-path="url(#L)">
      <path fill="#e3d5ea" d="M248.07 259.207h2.868v2.867h-2.868Zm0 0"></path>
    </g>
  </g>
  <g clip-path="url(#M)">
    <g clip-path="url(#N)">
      <path fill="#e3d5ea" d="M257.96 256.895h2.903v2.859h-2.902Zm0 0"></path>
    </g>
  </g>
  <g clip-path="url(#O)">
    <g clip-path="url(#P)">
      <path fill="#e3d5ea" d="M257.734 256.629h2.868v2.867h-2.868Zm0 0"></path>
    </g>
  </g>
  <g clip-path="url(#Q)">
    <g clip-path="url(#R)">
      <path fill="#e3d5ea" d="M257.25 256.438h3.54v3.187h-3.54Zm0 0"></path>
    </g>
  </g>
  <g clip-path="url(#S)">
    <g clip-path="url(#T)">
      <path fill="#e3d5ea" d="M254.45 256.242h6.859v3.805h-6.86Zm0 0"></path>
    </g>
  </g>
  <g clip-path="url(#U)">
    <g clip-path="url(#V)">
      <path fill="#ead4e1" d="M256.93 256.402h4.187v3.352h-4.187Zm0 0"></path>
    </g>
  </g>
  <g clip-path="url(#W)">
    <g clip-path="url(#X)">
      <path fill="#ead4e1" d="M257.703 256.734h2.902v2.86h-2.902Zm0 0"></path>
    </g>
  </g>
  <g clip-path="url(#Y)">
    <g clip-path="url(#Z)">
      <path fill="#ead4e1" d="M257.766 256.727h2.933v3.023h-2.933Zm0 0"></path>
    </g>
  </g>
  <g clip-path="url(#aa)">
    <g clip-path="url(#ab)">
      <path fill="#ead4e1" d="M254.45 256.242h6.445v3.996h-6.446Zm0 0"></path>
    </g>
  </g>
  <g clip-path="url(#ac)">
    <g clip-path="url(#ad)">
      <path fill="#ead4e1" d="M254.996 255.469h5.902v3.836h-5.902Zm0 0"></path>
    </g>
  </g>
  <g clip-path="url(#ae)">
    <g clip-path="url(#af)">
      <path fill="#ead4e1" d="M255.164 254.785h2.86v2.86h-2.86Zm0 0"></path>
    </g>
  </g>
  <g clip-path="url(#ag)">
    <g clip-path="url(#ah)">
      <path fill="#ead4e1" d="M255.363 254.918h2.86v2.86h-2.86Zm0 0"></path>
    </g>
  </g>
  <g clip-path="url(#ai)">
    <g clip-path="url(#aj)">
      <path fill="#ead4e1" d="M256.766 255.207h2.859v2.86h-2.86Zm0 0"></path>
    </g>
  </g>
  <g clip-path="url(#ak)">
    <g clip-path="url(#al)">
      <path fill="#ead4e1" d="M255.469 255.117h3.203v2.86h-3.203Zm0 0"></path>
    </g>
  </g>
  <g clip-path="url(#am)">
    <g clip-path="url(#an)">
      <path fill="#ead4e1" d="M256.52 255.117h2.859v2.86h-2.86Zm0 0"></path>
    </g>
  </g>
  <g clip-path="url(#ao)">
    <g clip-path="url(#ap)">
      <path fill="#ead4e1" d="M256.297 255.031h2.86v2.86h-2.86Zm0 0"></path>
    </g>
  </g>
  <g clip-path="url(#aq)">
    <g clip-path="url(#ar)">
      <path fill="#ead4e1" d="M256.691 255.809h4.668v2.859h-4.668Zm0 0"></path>
    </g>
  </g>
  <g clip-path="url(#as)">
    <g clip-path="url(#at)">
      <path fill="#ead4e1" d="M258.387 256.074h2.86v2.86h-2.86Zm0 0"></path>
    </g>
  </g>
  <g clip-path="url(#au)">
    <g clip-path="url(#av)">
      <path fill="#ead4e1" d="M258.52 255.984h2.859v2.86h-2.86Zm0 0"></path>
    </g>
  </g>
  <g clip-path="url(#aw)">
    <g clip-path="url(#ax)">
      <path fill="#ead4e1" d="M258.41 256.117h2.86v2.86h-2.86Zm0 0"></path>
    </g>
  </g>
  <g clip-path="url(#ay)">
    <g clip-path="url(#az)">
      <path fill="#ead4e1" d="M258.23 255.852h2.86v2.859h-2.86Zm0 0"></path>
    </g>
  </g>
  <g clip-path="url(#aA)">
    <g clip-path="url(#aB)">
      <path fill="#ead4e1" d="M258.52 256.453h2.859v2.86h-2.86Zm0 0"></path>
    </g>
  </g>
  <g clip-path="url(#aC)">
    <g clip-path="url(#aD)">
      <path fill="#ff838e" d="M140.16 424.621h18.953v20.656H140.16Zm0 0"></path>
    </g>
  </g>
  <path fill="#a40000" d="M444.944 470.125V335.641h17.016v67.453h.61l55.968-67.453h19.266l-42.016 51.25 48.578 83.234h-19.062l-40.188-69.906-23.156 27.266v42.64Zm140.011 2.453q-12.504.001-20.813-7.375-8.297-7.371-8.297-20.906 0-16.404 14.547-25.11 14.56-8.717 46.547-12.202-.001-4.719-.922-9.22-.926-4.512-3.187-8c-1.5-2.32-3.586-4.202-6.25-5.64q-3.988-2.156-10.141-2.156c-5.742 0-11.14 1.094-16.203 3.281q-7.581 3.283-13.516 7.39l-6.562-11.687q6.966-4.512 17.015-8.718 10.045-4.203 22.141-4.204c12.156 0 20.969 3.727 26.437 11.172 5.47 7.45 8.204 17.39 8.204 29.828v61.094h-13.938l-1.437-11.89h-.61a84.4 84.4 0 0 1-15.39 10.156q-8.192 4.185-17.625 4.187m4.921-13.515c4.782 0 9.29-1.125 13.532-3.375q6.358-3.389 13.531-9.953v-27.672q-12.503 1.629-21.016 3.89-8.502 2.252-13.734 5.328-5.221 3.082-7.578 7.079-2.36 3.985-2.36 8.703c0 5.742 1.708 9.843 5.125 12.312q5.124 3.69 12.5 3.688m75.448 11.062V370.5h16.812v99.625ZM673.934 350c-3.282 0-6.055-1.023-8.313-3.078q-3.375-3.074-3.375-7.797 0-4.92 3.375-7.89c2.258-1.977 5.031-2.97 8.312-2.97s6.047.993 8.297 2.97q3.389 2.97 3.39 7.89-.001 4.722-3.39 7.797c-2.25 2.055-5.016 3.078-8.297 3.078m41.822 162.156V370.5h13.937l1.438 11.469h.61q6.76-5.731 14.859-9.828 8.11-4.11 16.922-4.11 9.622.002 17 3.594 7.388 3.582 12.312 10.25 4.92 6.657 7.484 15.985c1.707 6.218 2.563 13.226 2.563 21.015 0 8.469-1.164 16.024-3.484 22.656q-3.487 9.938-9.438 16.907-5.94 6.971-13.734 10.562-7.783 3.576-16.39 3.578-6.974-.002-13.845-3.062-6.86-3.076-13.843-8.406l.421 17.421v33.625Zm41.203-53.718q6.154 0 11.375-2.766 5.231-2.765 9.016-7.781 3.796-5.03 5.953-12.406 2.156-7.388 2.156-16.61 0-8.202-1.437-14.969c-.961-4.507-2.5-8.367-4.625-11.578q-3.177-4.81-8.204-7.468-5.016-2.672-11.984-2.672-6.345.002-12.812 3.484-6.457 3.486-13.829 10.031v52.282q6.763 5.737 13.11 8.093 6.358 2.36 11.281 2.36m95.528 14.14q-12.504.001-20.813-7.375-8.297-7.371-8.297-20.906 0-16.404 14.547-25.11 14.56-8.717 46.547-12.202-.001-4.719-.922-9.22-.926-4.512-3.187-8-2.252-3.481-6.25-5.64-3.988-2.156-10.141-2.156c-5.742 0-11.14 1.094-16.203 3.281q-7.582 3.283-13.516 7.39l-6.562-11.687q6.966-4.512 17.015-8.718c6.696-2.801 14.079-4.204 22.141-4.204 12.156 0 20.969 3.727 26.438 11.172 5.468 7.45 8.203 17.39 8.203 29.828v61.094h-13.938l-1.437-11.89h-.61a84.4 84.4 0 0 1-15.39 10.156q-8.192 4.185-17.625 4.187m4.922-13.515q7.17 0 13.53-3.375 6.36-3.389 13.532-9.953v-27.672q-12.503 1.629-21.016 3.89-8.502 2.252-13.734 5.328-5.222 3.082-7.578 7.079-2.36 3.985-2.36 8.703c0 5.742 1.708 9.843 5.126 12.312q5.122 3.69 12.5 3.688m119.525 13.515q-6.972 0-14.453-3.375-7.486-3.387-14.047-9.328h-.61l-1.437 10.25h-13.531V324.172h16.812v39.766l-.421 18.03a69.2 69.2 0 0 1 14.765-9.937q7.997-3.998 16.406-4 9.622.002 17 3.594 7.39 3.582 12.407 10.25 5.026 6.657 7.593 15.985 2.562 9.327 2.563 20.812c0 8.469-1.164 16.055-3.484 22.75q-3.487 10.05-9.438 17.016-5.94 6.971-13.734 10.562-7.783 3.576-16.391 3.578m-2.875-14.14q6.154 0 11.375-2.766 5.231-2.765 9.016-7.781 3.795-5.03 5.953-12.406 2.156-7.388 2.156-16.61 0-8.202-1.437-14.969-1.44-6.761-4.625-11.578-3.177-4.81-8.204-7.468-5.016-2.672-11.984-2.672c-8.062 0-16.945 4.507-26.64 13.515v52.282q6.56 5.737 13.015 8.093 6.452 2.36 11.375 2.36m72.164 11.687V370.5h16.813v99.625Zm8.61-120.125c-3.281 0-6.055-1.023-8.313-3.078q-3.375-3.074-3.375-7.797 0-4.92 3.375-7.89c2.258-1.977 5.032-2.97 8.313-2.97s6.047.993 8.297 2.97q3.389 2.97 3.39 7.89-.002 4.722-3.39 7.797c-2.25 2.055-5.016 3.078-8.297 3.078m59.65 122.578c-6.418 0-10.996-1.914-13.735-5.734q-4.094-5.731-4.093-16.813V324.172h16.812v127.094q0 4.094 1.422 5.734 1.435 1.64 3.281 1.64h1.547c.477 0 1.195-.132 2.156-.405l2.25 12.703c-1.093.55-2.398.96-3.906 1.234q-2.252.405-5.734.406m34.448-2.453V370.5h16.812v99.625ZM1157.54 350c-3.282 0-6.056-1.023-8.313-3.078q-3.375-3.074-3.375-7.797 0-4.92 3.375-7.89c2.257-1.977 5.03-2.97 8.312-2.97s6.047.993 8.297 2.97q3.389 2.97 3.39 7.89-.002 4.722-3.39 7.797c-2.25 2.055-5.016 3.078-8.297 3.078m73.181 122.578q-7.985-.002-13.422-2.453-5.44-2.45-8.828-6.75-3.376-4.311-4.812-10.469-1.423-6.153-1.422-13.53v-55.141h-14.766v-12.72l15.578-1.015 2.047-27.89h14.14v27.89h26.86v13.735h-26.86v55.343q0 9.235 3.376 14.25 3.387 5.016 12 5.016 2.67 0 5.75-.813 3.075-.825 5.531-1.843l3.281 12.703q-4.095 1.438-8.921 2.562-4.816 1.125-9.532 1.125m39.573 40.391q-3.487 0-6.36-.516-2.877-.516-5.327-1.531l3.28-13.328c1.095.27 2.321.578 3.688.922q2.045.515 3.891.515 8.608 0 14.047-6.046c3.625-4.032 6.46-9.125 8.515-15.282l2.25-7.375-39.984-99.828h17.438l20.296 55.14q2.248 6.565 4.813 13.845a569 569 0 0 1 4.812 14.234h.829q2.249-6.763 4.296-14.14a430 430 0 0 1 4.11-13.938l17.828-55.14h16.406l-37.515 107.827q-2.673 7.37-5.954 13.735c-2.187 4.238-4.789 7.894-7.796 10.968q-4.501 4.606-10.25 7.266-5.737 2.672-13.313 2.672m0 0"></path>
</svg>